<?xml version="1.0" encoding="iso-8859-1"?>
<!-- Uploaded to: SVG Repo, www.svgrepo.com, Generator: SVG Repo Mixer Tools -->
<!DOCTYPE svg PUBLIC "-//W3C//DTD SVG 1.1//EN" "http://www.w3.org/Graphics/SVG/1.1/DTD/svg11.dtd">
<svg fill="#000000" height="800px" width="800px" version="1.1" id="Capa_1" xmlns="http://www.w3.org/2000/svg" xmlns:xlink="http://www.w3.org/1999/xlink" 
	 viewBox="0 0 196.433 196.433" xml:space="preserve">
<path d="M187.67,196.433h-52.894c-1.104,0-2-0.896-2-2c0-7.284-5.926-13.209-13.21-13.209H91.616c-3.905,0-7.742-1.056-11.098-3.054
	l-67.512-40.016c-3.009-1.792-5.104-4.653-5.901-8.058c-0.797-3.406-0.191-6.899,1.707-9.837l0.12-0.186
	c3.583-5.547,10.706-7.448,16.57-4.426l56.084,29.728c4.514,2.325,9.606,3.56,14.708,3.56h7.959v-8.801l-12.317-4.105
	c-5.185-1.729-8.419-6.741-7.867-12.19c0.592-5.834,5.808-10.404,11.875-10.404c2.769,0,5.544,0.118,8.31,0.354V97.392
	c0-11.56-4.421-22.439-12.462-30.709c-2.354,2.093-7.352,5.622-14.576,5.941c-8.903,0.381-18.152-4.155-27.512-13.514l0,0
	C24.353,33.758,28.021,3.285,28.189,2c0.118-0.898,0.825-1.605,1.724-1.723c1.281-0.169,31.759-3.836,57.108,21.515
	c9.359,9.359,13.906,18.616,13.514,27.512c-0.317,7.196-3.82,12.185-5.916,14.549c5.494,5.637,9.443,12.388,11.635,19.739
	c2.195-7.364,6.155-14.126,11.664-19.769c-2.099-2.376-5.574-7.353-5.89-14.52c-0.393-8.896,4.155-18.152,13.515-27.512
	c25.352-25.353,55.822-21.684,57.108-21.515c0.898,0.118,1.605,0.825,1.724,1.723c0.168,1.285,3.836,31.758-21.516,57.109
	c-9.359,9.359-18.607,13.916-27.511,13.514c-7.255-0.32-12.266-3.877-14.606-5.967c-8.058,8.273-12.488,19.164-12.488,30.735v16.817
	c2.194,0.277,4.378,0.628,6.544,1.051l55.211,10.799c11.393,2.228,19.662,12.271,19.662,23.88v44.494
	C189.67,195.538,188.775,196.433,187.67,196.433z M136.662,192.433h49.009v-42.494c0-9.701-6.91-18.093-16.43-19.955l-55.211-10.799
	c-2.631-0.515-5.29-0.917-7.961-1.206c-0.021-0.002-0.043-0.004-0.064-0.007c-3.343-0.359-6.706-0.54-10.061-0.54
	c-4.04,0-7.508,2.99-7.895,6.807c-0.362,3.573,1.756,6.86,5.152,7.992l13.655,4.552c0.02,0.006,0.039,0.013,0.059,0.02l15.406,5.135
	c2.26,0.754,3.829,2.7,3.997,4.959c0.116,1.556-0.425,3.102-1.482,4.241c-1.06,1.141-2.559,1.794-4.114,1.794H96.294
	c-5.735,0-11.462-1.388-16.561-4.015L23.65,119.191c-4.01-2.065-8.896-0.759-11.354,3.046l-0.12,0.187
	c-1.307,2.023-1.723,4.421-1.176,6.76c0.548,2.338,1.986,4.303,4.05,5.532l67.512,40.016c2.74,1.632,5.87,2.493,9.055,2.493h27.951
	C128.38,177.224,135.667,183.883,136.662,192.433z M108.253,148.933h12.469c0.454,0,0.874-0.183,1.183-0.516
	c0.309-0.332,0.459-0.766,0.426-1.223c-0.048-0.635-0.56-1.223-1.274-1.461l-12.803-4.268V148.933z M52.532,56.281
	c8.533,8.533,16.784,12.671,24.508,12.346c8.37-0.369,13.164-5.982,13.212-6.039c0.075-0.09,0.159-0.173,0.249-0.249
	c0.052-0.044,5.704-4.943,6.041-13.284c0.312-7.708-3.843-15.93-12.349-24.436C63.423,3.85,38.509,3.742,32.029,4.113
	C31.672,10.589,31.806,35.555,52.532,56.281L52.532,56.281z M177.729,4.044c-9.158,0-30.933,2.151-49.358,20.576
	c-8.506,8.506-12.661,16.728-12.35,24.436c0.337,8.341,5.989,13.24,6.047,13.289c0.086,0.073,0.171,0.158,0.243,0.244
	c0.044,0.051,4.943,5.705,13.284,6.042c7.729,0.316,15.931-3.844,24.436-12.349c20.771-20.772,20.875-45.69,20.507-52.164
	C179.819,4.077,178.872,4.044,177.729,4.044z M125.757,59.344c-0.343,0-0.69-0.088-1.009-0.274
	c-0.953-0.558-1.273-1.783-0.715-2.736c0.119-0.205,1.528-2.597,4-6.163l-1.264-10.3c-0.134-1.097,0.646-2.094,1.742-2.229
	c1.082-0.125,2.094,0.645,2.229,1.742l0.739,6.028c2.415-3.196,5.357-6.81,8.735-10.438c0.951-1.021,1.989-2.07,3.089-3.132
	l-1.801-10.712c-0.183-1.089,0.552-2.121,1.642-2.304c1.086-0.188,2.12,0.552,2.304,1.641l1.365,8.123
	c9.927-8.875,22.341-17.619,22.987-18.072c0.904-0.636,2.151-0.416,2.786,0.487c0.635,0.904,0.417,2.151-0.487,2.786
	c-0.116,0.082-7.138,5.026-14.782,11.176l7.66,2.488c1.05,0.341,1.625,1.47,1.284,2.52c-0.341,1.05-1.468,1.627-2.521,1.285
	l-10.096-3.28c-3.862,3.237-7.629,6.632-10.503,9.719c-1.661,1.784-3.218,3.572-4.656,5.31l15.244,4.103
	c1.066,0.287,1.699,1.384,1.412,2.451c-0.287,1.066-1.384,1.701-2.451,1.411l-16.935-4.558c-5.159,6.656-8.229,11.865-8.272,11.938
	C127.113,58.989,126.445,59.344,125.757,59.344z M86.806,59.343c-0.687,0-1.355-0.354-1.728-0.989
	c-0.043-0.073-3.119-5.288-8.273-11.938l-16.934,4.557c-1.065,0.289-2.164-0.345-2.451-1.411c-0.287-1.067,0.346-2.164,1.412-2.451
	l15.243-4.103c-1.439-1.738-2.995-3.526-4.655-5.31c-1.101-1.182-2.332-2.41-3.65-3.656c-0.021-0.02-0.044-0.041-0.065-0.062
	c-2.105-1.989-4.429-4.024-6.787-6.001l-10.096,3.28c-1.053,0.342-2.18-0.234-2.521-1.285s0.234-2.179,1.284-2.52l7.66-2.488
	c-7.645-6.15-14.666-11.094-14.782-11.176c-0.904-0.635-1.122-1.882-0.487-2.786c0.635-0.903,1.882-1.123,2.786-0.487
	c0.646,0.454,13.061,9.196,22.987,18.072l1.365-8.123c0.184-1.088,1.206-1.828,2.305-1.641c1.089,0.183,1.823,1.214,1.641,2.304
	L69.258,31.84c1.1,1.061,2.139,2.111,3.09,3.132c3.378,3.628,6.319,7.242,8.735,10.438l0.739-6.027
	c0.136-1.097,1.153-1.873,2.229-1.741c1.097,0.134,1.877,1.132,1.742,2.229L84.529,50.17c2.472,3.567,3.881,5.958,4.001,6.164
	c0.559,0.953,0.238,2.178-0.715,2.736C87.498,59.255,87.149,59.343,86.806,59.343z"/>
</svg>